<svg xmlns="http://www.w3.org/2000/svg" xmlns:xlink="http://www.w3.org/1999/xlink" style="display: none;">
	
		<symbol id="cook" viewBox="0 0 60 60">
			<g data-name="Слой 2" class="svg-icon-cook__inner"><path class="cls-1" d="M22.52 43.87l-15 3.78C3.61 49.13 1 54.8 1 59h58c0-4.2-2.61-9.87-6.55-11.35l-15-3.78"></path><path class="cls-2" d="M31 59V47.53"></path><path class="cls-1" d="M16 26c-2.52 0-1.13 9 2.36 9 0 7.57 8.15 12.61 11.64 12.61M44 26c1.26 0 1.13 9-2.36 9 0 7.57-8.15 12.61-11.64 12.61M14.87 16.43L16 26s3.91-3 14-3 14 3 14 3l1.13-9.57m-23.96-6.6a9.16 9.16 0 0 1 .37-2.53 5.66 5.66 0 1 0-6.67 9.13m30.26 0a5.66 5.66 0 1 0-6.68-9.13 8.8 8.8 0 0 1 .38 2.53m-.38-2.53a8.82 8.82 0 0 0-16.91 0m0 0a9.16 9.16 0 0 0-.37 2.53m17.66 0a8.8 8.8 0 0 0-.38-2.53M22.43 30c0-1.39 1.13-1.26 2.53-1.26s2.52-.13 2.52 1.26m5.04 0c0-1.39 1.13-1.26 2.52-1.26s2.53-.13 2.53 1.26"></path><path class="cls-3" d="M26.22 37a1.71 1.71 0 0 1 1.31 1.05h-2.62A1.7 1.7 0 0 1 26.22 37m0-2c-2.09 0-3.79 2.26-3.79 5.05H30C30 37.3 28.31 35 26.22 35zm7.56 2a1.7 1.7 0 0 1 1.31 1.05h-2.62A1.71 1.71 0 0 1 33.78 37m0-2C31.69 35 30 37.3 30 40.09h7.57c0-2.79-1.7-5.05-3.79-5.05z"></path></g>
		</symbol>
	
		<symbol id="hamburger" viewBox="0 0 60 60">
			<g data-name="Слой 2" class="svg-icon-hamburger__inner"><path class="cls-1" d="M30 41l15 8 8-8"></path><path class="cls-1" d="M59 46a5 5 0 0 1-5 5H6a5 5 0 0 1 0-10h48a5 5 0 0 1 5 5zM6 51v3a5 5 0 0 0 5 5h38a5 5 0 0 0 5-5v-3zm48-28C54 9.77 43.23 1 30 1S6 9.77 6 23zM6 23s-5 3-5 5c0 2.79 2.22 3 5 3 1.34 0 3.1-.14 4-1 1.29 2.33 3.15 4 6 4 3.1 0 5.83-2.33 7-5 1.16 2.67 3.89 4 7 4s5.83-1.33 7-4c1.16 2.67 3.89 5 7 5a8.27 8.27 0 0 0 7-4c.9.86 2.66 1 4 1 2.79 0 4-.21 4-3 0-2-5-5-5-5"></path><path class="cls-1" d="M6 31a5 5 0 0 0 0 10h48a5 5 0 0 0 0-10"></path><path d="M17 10a1 1 0 1 0 1 1 1 1 0 0 0-1-1zm14 0a1 1 0 1 0 1 1 1 1 0 0 0-1-1zm12 0a1 1 0 1 0 1 1 1 1 0 0 0-1-1zM23 6a1 1 0 1 0 1 1 1 1 0 0 0-1-1zm14 0a1 1 0 1 0 1 1 1 1 0 0 0-1-1z"></path></g>
		</symbol>
	
		<symbol id="menu" viewBox="0 0 14 10">
			<path d="M0 0h14v2H0zm0 4h14v2H0zm0 4h14v2H0z"></path>
		</symbol>
	
		<symbol id="money" viewBox="0 0 60 32">
			<g data-name="Слой 2" class="svg-icon-money__inner"><path class="cls-1" d="M59 8L44 18H31m28-4L44 24H31m28-5L44 29H31"></path><path class="cls-1" d="M31 31H13V11L28 1h18L31 11v20zM13 17H1m12 4H1m12 4H1m12 4H1"></path><path class="cls-2" d="M43 3h16L44 13H31m-18 0H1L16 3h9"></path><path class="cls-1" d="M22 25v2m0-16v2m-3 9a3 3 0 1 0 3-3 3 3 0 1 1 3-3"></path></g>
		</symbol>
	
</svg>
